<svg viewBox="0 0 16 16"><path fill="#828282" d="M0.000 27.553 C 0.000 48.717,0.232 55.256,1.000 55.753 C 1.550 56.109,11.900 56.580,24.000 56.800 L 46.000 57.200 46.400 121.600 C 46.828 190.494,46.597 186.752,50.968 195.713 C 54.727 203.422,64.830 212.582,72.000 214.782 C 73.100 215.120,74.505 215.802,75.122 216.298 C 77.163 217.938,97.313 217.463,102.000 215.665 C 111.558 211.998,120.179 204.647,124.825 196.204 C 129.244 188.171,129.123 190.093,129.577 121.200 L 130.000 57.200 153.364 56.988 L 176.729 56.776 177.652 60.188 C 178.160 62.065,178.861 64.320,179.210 65.200 C 179.559 66.080,180.640 69.140,181.613 72.000 C 182.586 74.860,183.881 78.334,184.491 79.721 C 185.101 81.107,185.600 82.642,185.600 83.132 C 185.600 83.621,185.943 84.647,186.361 85.411 C 186.780 86.175,187.638 88.060,188.268 89.600 C 193.085 101.373,195.607 106.882,201.634 118.800 C 211.676 138.655,219.059 151.600,220.342 151.600 C 220.677 151.600,221.787 149.031,222.811 145.892 C 223.835 142.752,225.028 139.512,225.462 138.692 C 225.897 137.871,227.583 134.500,229.209 131.200 C 259.086 70.568,341.351 62.978,380.940 117.200 C 383.510 120.720,385.885 123.960,386.218 124.400 C 388.172 126.985,393.833 139.690,395.486 145.200 C 402.912 169.960,399.410 198.329,386.276 219.808 C 358.942 264.508,306.536 277.171,255.412 251.429 C 250.019 248.713,247.032 247.596,246.853 248.229 C 246.703 248.763,246.186 251.360,245.705 254.000 C 245.224 256.640,244.249 261.500,243.537 264.800 C 242.826 268.100,241.950 272.240,241.591 274.000 C 241.232 275.760,239.814 282.420,238.440 288.800 C 234.007 309.388,231.336 322.022,229.982 328.800 C 229.411 331.660,228.461 335.800,227.872 338.000 L 226.800 342.000 203.400 342.212 L 180.000 342.424 180.000 339.869 C 180.000 338.463,180.346 336.208,180.770 334.857 C 181.193 333.506,182.117 329.520,182.822 326.000 C 183.527 322.480,184.603 317.440,185.214 314.800 C 185.824 312.160,186.726 308.020,187.219 305.600 C 187.711 303.180,188.999 297.060,190.081 292.000 C 191.163 286.940,193.110 277.760,194.407 271.600 C 195.704 265.440,197.324 257.880,198.008 254.800 C 199.224 249.318,200.085 245.317,202.829 232.400 C 203.576 228.880,204.696 223.660,205.316 220.800 C 207.730 209.673,207.894 210.668,202.286 202.343 C 195.860 192.805,188.800 181.751,188.800 181.228 C 188.800 181.008,187.325 178.418,185.522 175.472 C 183.719 172.526,182.004 169.550,181.711 168.858 C 181.418 168.166,180.103 165.620,178.789 163.200 L 176.400 158.800 175.938 175.600 C 175.492 191.779,174.367 199.895,171.974 204.189 C 171.548 204.953,171.200 206.079,171.200 206.690 C 171.200 208.973,161.671 226.484,157.742 231.421 C 150.545 240.466,140.118 249.463,131.431 254.124 C 130.458 254.646,128.658 255.627,127.431 256.304 C 124.149 258.114,117.818 260.800,116.833 260.800 C 116.363 260.800,115.353 261.145,114.589 261.568 C 113.106 262.387,107.720 263.688,101.200 264.801 C 96.023 265.684,79.944 265.680,74.800 264.794 C 65.076 263.119,56.724 260.723,54.840 259.068 C 54.422 258.700,53.624 258.400,53.068 258.400 C 52.202 258.400,45.803 255.044,40.416 251.765 C 20.931 239.904,3.785 214.006,0.583 191.600 C 0.394 190.280,0.186 236.630,0.120 294.600 L 0.000 400.000 200.000 400.000 L 400.000 400.000 400.000 200.000 L 400.000 0.000 200.000 0.000 L 0.000 0.000 0.000 27.553 M300.800 128.344 C 281.345 131.952,267.779 150.406,263.134 179.581 C 262.715 182.210,262.036 185.450,261.624 186.781 C 258.072 198.252,257.584 196.802,267.200 203.326 C 297.745 224.047,331.083 220.401,346.771 194.622 C 367.133 161.163,339.403 121.185,300.800 128.344 " stroke="none" fill="#ffffff" fill-rule="evenodd"></path><path id="path1" d="M0.275 119.400 C 0.584 178.686,0.901 187.084,3.178 196.400 C 23.367 278.986,135.131 288.464,168.271 210.400 C 172.911 199.469,174.491 190.574,174.983 172.600 C 175.233 163.470,175.719 156.000,176.064 156.000 C 176.409 156.000,178.196 158.970,180.036 162.600 C 181.877 166.230,183.653 169.560,183.984 170.000 C 184.315 170.440,185.596 172.600,186.831 174.800 C 191.948 183.919,193.387 186.340,197.200 192.253 C 199.400 195.664,202.930 200.873,205.045 203.828 C 209.762 210.417,210.138 205.837,201.652 245.200 C 195.728 272.678,194.799 277.001,192.539 287.600 C 191.883 290.680,190.223 298.420,188.850 304.800 C 187.477 311.180,186.013 318.020,185.596 320.000 C 185.179 321.980,184.114 327.020,183.229 331.200 C 182.345 335.380,181.616 339.250,181.611 339.800 C 181.602 340.576,186.569 340.800,203.807 340.800 L 226.013 340.800 227.475 333.000 C 228.279 328.710,229.282 324.066,229.704 322.680 C 230.126 321.295,230.781 318.415,231.160 316.280 C 231.930 311.937,233.725 303.223,235.584 294.800 C 237.128 287.801,241.108 269.047,243.734 256.400 C 245.971 245.623,246.439 244.735,249.020 246.362 C 295.006 275.344,354.549 265.491,381.744 224.400 C 422.531 162.771,381.025 82.429,308.400 82.429 C 266.873 82.429,235.463 108.215,221.949 153.400 C 221.296 155.584,219.451 154.119,216.400 148.996 C 203.343 127.073,192.242 104.290,183.952 82.400 C 182.535 78.660,181.065 74.880,180.684 74.000 C 180.304 73.120,178.966 69.160,177.711 65.200 L 175.430 58.000 153.315 57.787 L 131.200 57.575 131.200 120.303 C 131.200 194.434,131.353 193.360,118.951 206.295 C 99.256 226.838,61.869 221.703,49.818 196.800 C 44.791 186.413,45.222 193.042,44.977 122.200 L 44.755 57.600 22.354 57.600 L -0.047 57.600 0.275 119.400 M318.785 126.826 C 328.017 128.966,338.572 134.886,343.214 140.526 C 362.251 163.656,356.898 198.161,332.203 211.500 C 310.015 223.484,284.087 219.153,259.235 199.313 L 257.270 197.744 259.397 188.672 C 260.567 183.682,262.105 176.900,262.814 173.600 C 270.272 138.935,292.153 120.649,318.785 126.826 " stroke="none" fill="#6fda44" fill-rule="evenodd"></path><path id="path2" d="M11.000 57.398 C 17.270 57.533,27.530 57.533,33.800 57.398 C 40.070 57.263,34.940 57.152,22.400 57.152 C 9.860 57.152,4.730 57.263,11.000 57.398 M138.400 57.363 C 157.270 57.929,175.817 57.948,175.478 57.400 C 175.273 57.070,165.137 56.875,152.953 56.967 C 140.769 57.060,134.220 57.237,138.400 57.363 M177.259 64.000 C 177.553 65.100,178.127 66.540,178.535 67.200 C 179.050 68.034,179.113 67.790,178.741 66.400 C 178.447 65.300,177.873 63.860,177.465 63.200 C 176.950 62.366,176.887 62.610,177.259 64.000 M179.636 71.400 C 179.935 72.390,180.509 73.552,180.912 73.982 C 181.314 74.412,181.238 73.602,180.743 72.182 C 179.730 69.276,178.795 68.615,179.636 71.400 M182.059 77.600 C 182.353 78.700,182.927 80.140,183.335 80.800 C 183.850 81.634,183.913 81.390,183.541 80.000 C 183.247 78.900,182.673 77.460,182.265 76.800 C 181.750 75.966,181.687 76.210,182.059 77.600 M304.627 82.191 C 306.952 82.353,310.552 82.351,312.627 82.187 C 314.702 82.023,312.800 81.890,308.400 81.892 C 304.000 81.894,302.302 82.029,304.627 82.191 M291.600 83.200 C 289.459 83.745,289.416 83.811,291.200 83.811 C 292.300 83.811,294.280 83.536,295.600 83.200 C 297.741 82.655,297.784 82.589,296.000 82.589 C 294.900 82.589,292.920 82.864,291.600 83.200 M321.200 83.200 C 322.520 83.536,324.500 83.811,325.600 83.811 C 327.384 83.811,327.341 83.745,325.200 83.200 C 323.880 82.864,321.900 82.589,320.800 82.589 C 319.016 82.589,319.059 82.655,321.200 83.200 M330.000 84.800 C 330.880 85.178,332.140 85.488,332.800 85.488 C 333.556 85.488,333.409 85.233,332.400 84.800 C 331.520 84.422,330.260 84.112,329.600 84.112 C 328.844 84.112,328.991 84.367,330.000 84.800 M282.000 85.600 C 280.991 86.033,280.844 86.288,281.600 86.288 C 282.260 86.288,283.520 85.978,284.400 85.600 C 285.409 85.167,285.556 84.912,284.800 84.912 C 284.140 84.912,282.880 85.222,282.000 85.600 M260.963 95.543 C 257.247 98.171,256.724 98.922,259.862 97.124 C 261.325 96.286,262.899 95.150,263.359 94.600 C 264.542 93.187,263.987 93.405,260.963 95.543 M247.200 106.800 C 245.257 108.780,243.847 110.400,244.067 110.400 C 244.287 110.400,246.057 108.780,248.000 106.800 C 249.943 104.820,251.353 103.200,251.133 103.200 C 250.913 103.200,249.143 104.820,247.200 106.800 M369.644 106.200 C 369.669 106.530,370.839 107.677,372.244 108.749 L 374.800 110.698 372.450 108.149 C 370.006 105.497,369.570 105.195,369.644 106.200 M196.057 110.800 C 196.057 111.240,196.571 112.500,197.200 113.600 C 197.829 114.700,198.343 115.240,198.343 114.800 C 198.343 114.360,197.829 113.100,197.200 112.000 C 196.571 110.900,196.057 110.360,196.057 110.800 M240.565 114.600 C 238.010 117.769,234.311 123.297,235.346 122.400 C 236.219 121.644,243.936 111.200,243.621 111.200 C 243.449 111.200,242.073 112.730,240.565 114.600 M203.200 125.600 C 204.970 129.120,206.598 132.000,206.818 132.000 C 207.038 132.000,205.770 129.120,204.000 125.600 C 202.230 122.080,200.602 119.200,200.382 119.200 C 200.162 119.200,201.430 122.080,203.200 125.600 M304.867 125.892 C 305.050 126.053,308.260 126.363,312.000 126.581 C 315.740 126.799,317.900 126.703,316.800 126.368 C 314.802 125.760,304.236 125.339,304.867 125.892 M327.267 129.865 C 328.653 130.966,335.138 134.147,334.765 133.543 C 334.270 132.742,328.479 129.600,327.499 129.600 C 327.188 129.600,327.083 129.719,327.267 129.865 M279.570 138.600 L 275.600 142.800 279.800 138.830 C 283.703 135.141,284.367 134.400,283.770 134.400 C 283.643 134.400,281.753 136.290,279.570 138.600 M391.659 138.400 C 391.953 139.500,392.527 140.940,392.935 141.600 C 393.450 142.434,393.513 142.190,393.141 140.800 C 392.847 139.700,392.273 138.260,391.865 137.600 C 391.350 136.766,391.287 137.010,391.659 138.400 M212.400 142.400 C 213.083 143.720,213.821 144.800,214.041 144.800 C 214.261 144.800,213.883 143.720,213.200 142.400 C 212.517 141.080,211.779 140.000,211.559 140.000 C 211.339 140.000,211.717 141.080,212.400 142.400 M393.712 144.000 C 393.712 144.660,394.022 145.920,394.400 146.800 C 394.833 147.809,395.088 147.956,395.088 147.200 C 395.088 146.540,394.778 145.280,394.400 144.400 C 393.967 143.391,393.712 143.244,393.712 144.000 M347.920 147.600 C 349.268 150.209,350.376 151.656,350.370 150.800 C 350.367 150.360,349.628 149.100,348.729 148.000 C 347.642 146.672,347.370 146.537,347.920 147.600 M221.600 152.267 C 221.600 153.851,220.704 153.981,219.313 152.600 C 218.505 151.798,218.411 151.877,218.838 153.000 C 219.131 153.770,219.884 154.400,220.511 154.400 C 221.750 154.400,222.906 152.239,222.099 151.432 C 221.824 151.158,221.600 151.533,221.600 152.267 M175.366 167.800 L 175.533 179.600 175.966 168.000 C 176.253 160.323,176.628 157.029,177.073 158.260 C 177.443 159.283,177.922 159.944,178.138 159.729 C 178.711 159.156,176.878 156.000,175.972 156.000 C 175.503 156.000,175.265 160.639,175.366 167.800 M267.158 158.111 C 266.716 159.272,266.504 160.370,266.685 160.552 C 266.867 160.733,267.398 159.783,267.866 158.441 C 268.906 155.457,268.278 155.164,267.158 158.111 M353.288 159.600 C 353.946 162.542,354.404 163.180,354.388 161.133 C 354.381 160.290,354.010 159.060,353.563 158.400 C 352.970 157.524,352.896 157.847,353.288 159.600 M397.911 171.600 C 397.912 177.320,398.040 179.555,398.194 176.567 C 398.348 173.578,398.347 168.898,398.191 166.167 C 398.036 163.435,397.909 165.880,397.911 171.600 M354.602 166.000 C 354.611 167.760,354.774 168.386,354.966 167.391 C 355.157 166.396,355.150 164.956,354.950 164.191 C 354.749 163.426,354.593 164.240,354.602 166.000 M264.457 166.057 C 264.163 167.230,264.076 168.343,264.265 168.532 C 264.454 168.720,264.849 167.915,265.143 166.743 C 265.437 165.570,265.524 164.457,265.335 164.268 C 265.146 164.080,264.751 164.885,264.457 166.057 M262.080 176.080 C 261.787 177.913,261.703 179.570,261.894 179.761 C 262.085 179.952,262.493 178.619,262.800 176.800 C 263.107 174.981,263.191 173.324,262.986 173.119 C 262.781 172.914,262.373 174.247,262.080 176.080 M354.586 175.200 C 354.586 176.740,354.750 177.370,354.951 176.600 C 355.153 175.830,355.153 174.570,354.951 173.800 C 354.750 173.030,354.586 173.660,354.586 175.200 M188.859 179.600 C 189.847 181.360,191.000 183.160,191.419 183.600 C 192.617 184.855,189.878 179.787,188.392 178.000 C 187.661 177.120,187.871 177.840,188.859 179.600 M0.174 181.200 C 0.166 182.960,0.448 185.300,0.800 186.400 C 1.685 189.165,1.685 183.880,0.800 180.400 C 0.219 178.117,0.189 178.156,0.174 181.200 M130.109 182.909 C 129.826 184.973,129.749 186.816,129.937 187.004 C 130.126 187.192,130.530 185.677,130.836 183.636 C 131.142 181.596,131.220 179.753,131.008 179.541 C 130.797 179.330,130.392 180.845,130.109 182.909 M353.693 180.135 C 353.642 180.869,353.393 182.129,353.140 182.935 C 352.703 184.324,352.727 184.326,353.593 182.975 C 354.096 182.191,354.345 180.931,354.147 180.175 C 353.821 178.936,353.776 178.932,353.693 180.135 M174.602 184.400 C 174.611 186.160,174.774 186.786,174.966 185.791 C 175.157 184.796,175.150 183.356,174.950 182.591 C 174.749 181.826,174.593 182.640,174.602 184.400 M396.509 186.909 C 396.226 188.973,396.149 190.816,396.337 191.004 C 396.526 191.192,396.930 189.677,397.236 187.636 C 397.542 185.596,397.620 183.753,397.408 183.541 C 397.197 183.330,396.792 184.845,396.509 186.909 M173.200 193.600 C 172.896 194.983,172.815 196.281,173.018 196.485 C 173.222 196.689,173.619 195.706,173.900 194.300 C 174.181 192.894,174.263 191.596,174.082 191.415 C 173.900 191.234,173.504 192.217,173.200 193.600 M198.297 194.800 C 198.729 195.680,199.669 197.120,200.386 198.000 L 201.688 199.600 200.903 198.000 C 200.471 197.120,199.531 195.680,198.814 194.800 L 197.512 193.200 198.297 194.800 M2.536 195.600 C 2.523 196.480,2.822 197.920,3.200 198.800 C 4.076 200.839,4.076 198.735,3.200 196.000 C 2.685 194.392,2.555 194.314,2.536 195.600 M257.600 196.353 C 257.600 197.427,257.895 198.488,258.255 198.711 C 258.616 198.933,258.755 198.055,258.564 196.758 C 258.145 193.899,257.600 193.670,257.600 196.353 M394.057 198.057 C 393.763 199.230,393.676 200.343,393.865 200.532 C 394.054 200.720,394.449 199.915,394.743 198.743 C 395.037 197.570,395.124 196.457,394.935 196.268 C 394.746 196.080,394.351 196.885,394.057 198.057 M339.973 204.600 L 335.600 209.200 340.200 204.827 C 344.474 200.765,345.166 200.000,344.573 200.000 C 344.448 200.000,342.378 202.070,339.973 204.600 M170.560 203.760 C 169.376 207.617,169.949 208.190,171.200 204.400 C 171.728 202.801,172.004 201.337,171.814 201.147 C 171.624 200.957,171.059 202.133,170.560 203.760 M117.600 206.631 C 115.180 208.940,112.300 211.469,111.200 212.250 C 109.277 213.615,109.299 213.616,111.794 212.266 C 114.058 211.041,123.367 202.373,122.373 202.416 C 122.168 202.425,120.020 204.322,117.600 206.631 M59.364 208.442 C 60.554 209.746,62.714 211.455,64.164 212.241 C 66.702 213.617,66.727 213.617,64.819 212.235 C 63.729 211.446,61.569 209.736,60.019 208.436 L 57.200 206.072 59.364 208.442 M207.700 213.700 C 207.033 217.035,207.679 217.681,208.400 214.400 C 208.704 213.017,208.785 211.719,208.582 211.515 C 208.378 211.311,207.981 212.294,207.700 213.700 M386.800 216.000 C 386.117 217.320,385.739 218.400,385.959 218.400 C 386.179 218.400,386.917 217.320,387.600 216.000 C 388.283 214.680,388.661 213.600,388.441 213.600 C 388.221 213.600,387.483 214.680,386.800 216.000 M74.000 217.229 C 75.320 217.833,76.940 218.317,77.600 218.303 C 78.260 218.289,77.540 217.793,76.000 217.200 C 72.347 215.793,70.910 215.814,74.000 217.229 M304.224 218.189 C 306.327 218.354,309.567 218.352,311.424 218.185 C 313.281 218.017,311.560 217.882,307.600 217.884 C 303.640 217.886,302.121 218.024,304.224 218.189 M84.600 219.408 C 86.491 219.790,89.509 219.790,91.400 219.408 C 94.346 218.813,93.891 218.722,88.000 218.722 C 82.109 218.722,81.654 218.813,84.600 219.408 M156.403 230.600 C 154.284 233.350,153.266 234.968,154.142 234.196 C 155.798 232.736,161.141 225.600,160.578 225.600 C 160.401 225.600,158.523 227.850,156.403 230.600 M370.462 237.488 C 362.446 245.672,362.526 246.042,370.664 238.419 C 373.969 235.324,379.878 228.621,379.067 228.888 C 378.920 228.936,375.048 232.806,370.462 237.488 M18.400 230.650 C 18.400 230.788,19.570 231.958,21.000 233.250 L 23.600 235.600 21.250 233.000 C 19.060 230.576,18.400 230.032,18.400 230.650 M202.844 236.444 C 202.543 238.050,202.457 239.523,202.652 239.719 C 202.848 239.915,203.254 238.761,203.556 237.156 C 203.857 235.550,203.943 234.077,203.748 233.881 C 203.552 233.685,203.146 234.839,202.844 236.444 M26.000 239.200 C 27.719 240.960,29.305 242.400,29.525 242.400 C 29.745 242.400,28.519 240.960,26.800 239.200 C 25.081 237.440,23.495 236.000,23.275 236.000 C 23.055 236.000,24.281 237.440,26.000 239.200 M148.428 239.644 C 147.215 240.769,146.378 241.845,146.569 242.036 C 146.760 242.227,147.948 241.307,149.208 239.992 C 152.008 237.069,151.466 236.828,148.428 239.644 M141.523 245.451 C 139.501 247.073,136.801 249.229,135.523 250.242 C 134.246 251.255,135.426 250.590,138.148 248.763 C 142.334 245.953,146.631 242.276,145.524 242.451 C 145.346 242.480,143.546 243.830,141.523 245.451 M200.500 247.300 C 199.833 250.635,200.479 251.281,201.200 248.000 C 201.504 246.617,201.585 245.319,201.382 245.115 C 201.178 244.911,200.781 245.894,200.500 247.300 M245.876 246.835 C 245.616 247.513,245.627 248.293,245.901 248.568 C 246.176 248.842,246.400 248.425,246.400 247.640 C 246.400 246.607,246.842 246.329,248.001 246.632 C 248.882 246.862,249.400 246.724,249.154 246.325 C 248.439 245.168,246.394 245.486,245.876 246.835 M358.800 247.670 L 356.400 249.732 359.000 248.012 C 360.430 247.065,361.600 246.136,361.600 245.946 C 361.600 245.347,361.261 245.555,358.800 247.670 M264.800 255.065 C 265.460 255.473,266.900 256.047,268.000 256.341 C 269.390 256.713,269.634 256.650,268.800 256.135 C 268.140 255.727,266.700 255.153,265.600 254.859 C 264.210 254.487,263.966 254.550,264.800 255.065 M198.113 257.768 C 197.843 258.776,197.653 260.320,197.691 261.200 C 197.729 262.080,198.090 261.396,198.493 259.679 C 199.273 256.355,198.940 254.681,198.113 257.768 M120.400 258.028 C 118.390 258.996,118.325 259.106,120.000 258.702 C 121.100 258.437,122.342 257.901,122.760 257.510 C 123.797 256.541,123.227 256.666,120.400 258.028 M331.600 260.000 C 330.591 260.433,330.444 260.688,331.200 260.688 C 331.860 260.688,333.120 260.378,334.000 260.000 C 335.009 259.567,335.156 259.312,334.400 259.312 C 333.740 259.312,332.480 259.622,331.600 260.000 M67.600 262.400 C 68.480 262.778,69.920 263.077,70.800 263.064 C 72.086 263.045,72.008 262.915,70.400 262.400 C 67.665 261.524,65.561 261.524,67.600 262.400 M105.600 262.400 C 103.992 262.915,103.914 263.045,105.200 263.064 C 106.080 263.077,107.520 262.778,108.400 262.400 C 110.439 261.524,108.335 261.524,105.600 262.400 M290.800 262.379 C 293.232 263.019,300.546 263.444,299.933 262.909 C 299.750 262.750,297.080 262.423,294.000 262.183 C 290.603 261.919,289.344 261.996,290.800 262.379 M319.200 262.400 L 315.600 262.960 318.800 263.000 C 320.560 263.022,322.900 262.752,324.000 262.400 C 326.527 261.591,324.404 261.591,319.200 262.400 M305.421 263.787 C 307.303 263.956,310.183 263.953,311.821 263.782 C 313.460 263.610,311.920 263.471,308.400 263.474 C 304.880 263.477,303.540 263.618,305.421 263.787 M83.800 264.590 C 86.110 264.751,89.890 264.751,92.200 264.590 C 94.510 264.428,92.620 264.296,88.000 264.296 C 83.380 264.296,81.490 264.428,83.800 264.590 M195.700 269.700 C 195.033 273.035,195.679 273.681,196.400 270.400 C 196.704 269.017,196.785 267.719,196.582 267.515 C 196.378 267.311,195.981 268.294,195.700 269.700 M238.844 278.844 C 238.543 280.450,238.457 281.923,238.652 282.119 C 238.848 282.315,239.254 281.161,239.556 279.556 C 239.857 277.950,239.943 276.477,239.748 276.281 C 239.552 276.085,239.146 277.239,238.844 278.844 M193.200 280.800 C 192.896 282.183,192.828 283.494,193.048 283.714 C 193.268 283.934,193.696 282.983,194.000 281.600 C 194.304 280.217,194.372 278.906,194.152 278.686 C 193.932 278.466,193.504 279.417,193.200 280.800 M236.400 290.400 C 236.096 291.783,236.015 293.081,236.218 293.285 C 236.422 293.489,236.819 292.506,237.100 291.100 C 237.767 287.765,237.121 287.119,236.400 290.400 M191.298 290.000 C 191.232 290.880,190.993 292.500,190.767 293.600 L 190.355 295.600 191.212 293.637 C 191.683 292.558,191.922 290.938,191.743 290.037 C 191.426 288.442,191.415 288.441,191.298 290.000 M234.044 301.244 C 233.743 302.850,233.657 304.323,233.852 304.519 C 234.048 304.715,234.454 303.561,234.756 301.956 C 235.057 300.350,235.143 298.877,234.948 298.681 C 234.752 298.485,234.346 299.639,234.044 301.244 M231.600 312.800 C 231.296 314.183,231.215 315.481,231.418 315.685 C 231.622 315.889,232.019 314.906,232.300 313.500 C 232.967 310.165,232.321 309.519,231.600 312.800 M186.100 314.500 C 185.433 317.835,186.079 318.481,186.800 315.200 C 187.104 313.817,187.185 312.519,186.982 312.315 C 186.778 312.111,186.381 313.094,186.100 314.500 M229.200 324.000 C 228.896 325.383,228.828 326.694,229.048 326.914 C 229.268 327.134,229.696 326.183,230.000 324.800 C 230.304 323.417,230.372 322.106,230.152 321.886 C 229.932 321.666,229.504 322.617,229.200 324.000 M226.844 335.644 C 226.543 337.250,226.457 338.723,226.652 338.919 C 226.848 339.115,227.254 337.961,227.556 336.356 C 227.857 334.750,227.943 333.277,227.748 333.081 C 227.552 332.885,227.146 334.039,226.844 335.644 M181.591 334.600 C 181.586 335.150,181.359 336.950,181.087 338.600 L 180.591 341.600 203.695 341.413 L 226.800 341.226 204.153 341.000 L 181.506 340.775 182.044 337.187 C 182.340 335.214,182.361 333.600,182.091 333.600 C 181.821 333.600,181.596 334.050,181.591 334.600 " stroke="none" fill="#96e476" fill-rule="evenodd"></path><path id="path3" d="M130.781 118.000 C 130.781 151.880,130.879 165.623,131.000 148.541 C 131.120 131.458,131.120 103.738,131.000 86.941 C 130.879 70.143,130.780 84.120,130.781 118.000 M45.181 118.800 C 45.181 152.680,45.279 166.423,45.400 149.341 C 45.520 132.258,45.520 104.538,45.400 87.741 C 45.279 70.943,45.180 84.920,45.181 118.800 M306.600 126.983 C 308.250 127.155,310.950 127.155,312.600 126.983 C 314.250 126.810,312.900 126.669,309.600 126.669 C 306.300 126.669,304.950 126.810,306.600 126.983 M340.800 139.600 C 342.293 141.140,343.694 142.400,343.914 142.400 C 344.134 142.400,343.093 141.140,341.600 139.600 C 340.107 138.060,338.706 136.800,338.486 136.800 C 338.266 136.800,339.307 138.060,340.800 139.600 M398.674 171.600 C 398.677 175.120,398.818 176.460,398.987 174.579 C 399.156 172.697,399.153 169.817,398.982 168.179 C 398.810 166.540,398.671 168.080,398.674 171.600 M175.429 182.800 C 175.435 185.000,175.590 185.805,175.774 184.589 C 175.958 183.373,175.953 181.573,175.763 180.589 C 175.573 179.605,175.423 180.600,175.429 182.800 M96.400 217.600 C 95.391 218.033,95.244 218.288,96.000 218.288 C 96.660 218.288,97.920 217.978,98.800 217.600 C 99.809 217.167,99.956 216.912,99.200 216.912 C 98.540 216.912,97.280 217.222,96.400 217.600 M301.409 217.366 C 302.404 217.557,303.844 217.550,304.609 217.350 C 305.374 217.149,304.560 216.993,302.800 217.002 C 301.040 217.011,300.414 217.174,301.409 217.366 M311.400 217.351 C 312.170 217.553,313.430 217.553,314.200 217.351 C 314.970 217.150,314.340 216.986,312.800 216.986 C 311.260 216.986,310.630 217.150,311.400 217.351 M86.600 218.951 C 87.370 219.153,88.630 219.153,89.400 218.951 C 90.170 218.750,89.540 218.586,88.000 218.586 C 86.460 218.586,85.830 218.750,86.600 218.951 M153.150 235.400 L 150.800 238.000 153.400 235.650 C 154.830 234.358,156.000 233.188,156.000 233.050 C 156.000 232.432,155.340 232.976,153.150 235.400 M85.000 265.383 C 86.650 265.555,89.350 265.555,91.000 265.383 C 92.650 265.210,91.300 265.069,88.000 265.069 C 84.700 265.069,83.350 265.210,85.000 265.383 " stroke="none" fill="#bfeeac" fill-rule="evenodd"></path><path id="path4" d="M-0.000 56.111 C -0.000 56.490,0.900 56.800,2.000 56.800 C 4.568 56.800,4.568 56.295,2.000 55.804 C 0.900 55.594,-0.000 55.732,-0.000 56.111 M45.600 119.440 L 46.000 182.000 46.205 120.045 C 46.318 85.970,46.138 57.818,45.805 57.485 C 45.472 57.152,45.380 85.032,45.600 119.440 M129.981 119.600 C 129.981 153.920,130.079 167.843,130.200 150.541 C 130.320 133.238,130.320 105.158,130.200 88.141 C 130.079 71.123,129.981 85.280,129.981 119.600 M184.134 80.841 C 184.602 82.183,185.133 83.133,185.315 82.952 C 185.711 82.556,184.201 78.400,183.661 78.400 C 183.453 78.400,183.666 79.498,184.134 80.841 M298.400 81.248 C 299.060 81.393,305.000 81.635,311.600 81.787 C 318.200 81.939,322.520 81.821,321.200 81.526 C 319.880 81.231,313.940 80.988,308.000 80.987 C 302.060 80.986,297.740 81.104,298.400 81.248 M284.000 84.037 C 283.124 84.630,283.447 84.704,285.200 84.312 C 288.142 83.654,288.780 83.196,286.733 83.212 C 285.890 83.219,284.660 83.590,284.000 84.037 M328.867 83.487 C 329.050 83.646,330.280 84.016,331.600 84.312 C 333.353 84.704,333.676 84.630,332.800 84.037 C 331.720 83.306,328.064 82.795,328.867 83.487 M190.457 96.400 C 190.457 96.840,190.971 98.100,191.600 99.200 C 192.229 100.300,192.743 100.840,192.743 100.400 C 192.743 99.960,192.229 98.700,191.600 97.600 C 190.971 96.500,190.457 95.960,190.457 96.400 M246.781 106.600 L 240.400 113.200 247.000 106.819 C 253.130 100.892,253.965 100.000,253.381 100.000 C 253.261 100.000,250.291 102.970,246.781 106.600 M366.400 101.820 C 366.400 101.941,369.190 104.731,372.600 108.020 L 378.800 114.000 372.820 107.800 C 367.266 102.042,366.400 101.235,366.400 101.820 M299.200 128.039 C 297.851 128.498,298.502 128.569,301.200 128.257 C 303.400 128.003,305.350 127.661,305.533 127.497 C 306.163 126.935,301.199 127.360,299.200 128.039 M313.667 127.497 C 313.850 127.661,315.800 128.003,318.000 128.257 C 320.698 128.569,321.349 128.498,320.000 128.039 C 318.001 127.360,313.037 126.935,313.667 127.497 M276.646 143.000 C 275.236 144.641,274.179 146.400,274.602 146.400 C 274.766 146.400,275.698 145.320,276.674 144.000 C 278.602 141.392,278.584 140.743,276.646 143.000 M398.618 162.400 C 398.618 164.380,398.774 165.190,398.965 164.200 C 399.155 163.210,399.155 161.590,398.965 160.600 C 398.774 159.610,398.618 160.420,398.618 162.400 M353.869 171.200 C 353.869 174.500,354.010 175.850,354.183 174.200 C 354.355 172.550,354.355 169.850,354.183 168.200 C 354.010 166.550,353.869 167.900,353.869 171.200 M264.093 171.335 C 264.042 172.069,263.793 173.329,263.540 174.135 C 263.103 175.524,263.127 175.526,263.993 174.175 C 264.496 173.391,264.745 172.131,264.547 171.375 C 264.221 170.136,264.176 170.132,264.093 171.335 M398.618 180.800 C 398.618 182.780,398.774 183.590,398.965 182.600 C 399.155 181.610,399.155 179.990,398.965 179.000 C 398.774 178.010,398.618 178.820,398.618 180.800 M261.693 183.335 C 261.642 184.069,261.393 185.329,261.140 186.135 C 260.703 187.524,260.727 187.526,261.593 186.175 C 262.096 185.391,262.345 184.131,262.147 183.375 C 261.821 182.136,261.776 182.132,261.693 183.335 M0.856 192.867 C 0.887 193.930,1.239 195.520,1.637 196.400 C 2.143 197.515,2.215 197.030,1.875 194.800 C 1.309 191.086,0.775 190.071,0.856 192.867 M56.000 204.250 C 56.000 204.388,57.170 205.558,58.600 206.850 L 61.200 209.200 58.850 206.600 C 56.660 204.176,56.000 203.632,56.000 204.250 M206.114 208.000 C 206.617 208.660,207.205 209.920,207.421 210.800 C 207.795 212.320,207.819 212.315,207.907 210.698 C 207.958 209.762,207.370 208.502,206.600 207.898 C 205.382 206.943,205.319 206.956,206.114 208.000 M112.400 210.100 C 110.962 211.324,110.667 211.811,111.666 211.315 C 113.132 210.586,115.883 207.953,115.098 208.029 C 114.934 208.045,113.720 208.977,112.400 210.100 M279.200 210.800 C 280.300 211.429,281.560 211.943,282.000 211.943 C 282.440 211.943,281.900 211.429,280.800 210.800 C 279.700 210.171,278.440 209.657,278.000 209.657 C 277.560 209.657,278.100 210.171,279.200 210.800 M70.400 214.668 C 70.400 214.874,71.562 215.448,72.982 215.943 C 74.402 216.438,75.212 216.514,74.782 216.112 C 73.871 215.259,70.400 214.115,70.400 214.668 M102.000 215.628 C 100.000 216.592,99.933 216.703,101.600 216.295 C 103.867 215.741,106.415 214.443,105.200 214.460 C 104.760 214.467,103.320 214.992,102.000 215.628 M206.000 216.800 C 205.696 218.183,205.615 219.481,205.818 219.685 C 206.022 219.889,206.419 218.906,206.700 217.500 C 207.367 214.165,206.721 213.519,206.000 216.800 M291.600 215.099 C 292.480 215.469,294.640 215.998,296.400 216.273 C 298.431 216.591,299.015 216.528,298.000 216.101 C 297.120 215.731,294.960 215.202,293.200 214.927 C 291.169 214.609,290.585 214.672,291.600 215.099 M306.600 217.351 C 307.370 217.553,308.630 217.553,309.400 217.351 C 310.170 217.150,309.540 216.986,308.000 216.986 C 306.460 216.986,305.830 217.150,306.600 217.351 M84.200 218.188 C 86.290 218.353,89.710 218.353,91.800 218.188 C 93.890 218.023,92.180 217.888,88.000 217.888 C 83.820 217.888,82.110 218.023,84.200 218.188 M26.000 240.000 C 29.499 243.520,32.542 246.400,32.762 246.400 C 32.982 246.400,30.299 243.520,26.800 240.000 C 23.301 236.480,20.258 233.600,20.038 233.600 C 19.818 233.600,22.501 236.480,26.000 240.000 M149.600 239.600 C 146.322 242.900,143.820 245.600,144.040 245.600 C 144.260 245.600,147.122 242.900,150.400 239.600 C 153.678 236.300,156.180 233.600,155.960 233.600 C 155.740 233.600,152.878 236.300,149.600 239.600 M201.200 239.200 C 200.896 240.583,200.815 241.881,201.018 242.085 C 201.222 242.289,201.619 241.306,201.900 239.900 C 202.567 236.565,201.921 235.919,201.200 239.200 M198.800 250.400 C 198.496 251.783,198.415 253.081,198.618 253.285 C 198.822 253.489,199.219 252.506,199.500 251.100 C 200.167 247.765,199.521 247.119,198.800 250.400 M196.444 261.244 C 196.143 262.850,196.057 264.323,196.252 264.519 C 196.448 264.715,196.854 263.561,197.156 261.956 C 197.457 260.350,197.543 258.877,197.348 258.681 C 197.152 258.485,196.746 259.639,196.444 261.244 M329.600 261.600 C 327.952 262.128,327.882 262.252,329.200 262.308 C 330.080 262.345,331.340 262.027,332.000 261.600 C 333.402 260.694,332.429 260.694,329.600 261.600 M70.400 264.010 C 71.060 264.431,72.650 264.781,73.933 264.788 C 77.028 264.804,76.355 264.342,72.400 263.736 C 70.221 263.402,69.583 263.489,70.400 264.010 M102.400 264.000 C 99.632 264.583,99.627 264.590,102.000 264.682 C 103.320 264.734,104.940 264.427,105.600 264.000 C 106.932 263.139,106.490 263.139,102.400 264.000 M296.948 264.120 C 299.418 264.814,316.834 264.833,318.566 264.144 C 319.317 263.845,314.344 263.600,307.514 263.600 C 300.684 263.600,295.929 263.834,296.948 264.120 M78.600 265.351 C 79.370 265.553,80.630 265.553,81.400 265.351 C 82.170 265.150,81.540 264.986,80.000 264.986 C 78.460 264.986,77.830 265.150,78.600 265.351 M94.600 265.351 C 95.370 265.553,96.630 265.553,97.400 265.351 C 98.170 265.150,97.540 264.986,96.000 264.986 C 94.460 264.986,93.830 265.150,94.600 265.351 M240.500 276.100 C 239.833 279.435,240.479 280.081,241.200 276.800 C 241.504 275.417,241.585 274.119,241.382 273.915 C 241.178 273.711,240.781 274.694,240.500 276.100 M191.600 284.000 C 191.296 285.383,191.215 286.681,191.418 286.885 C 191.622 287.089,192.019 286.106,192.300 284.700 C 192.967 281.365,192.321 280.719,191.600 284.000 M235.700 298.500 C 235.033 301.835,235.679 302.481,236.400 299.200 C 236.704 297.817,236.785 296.519,236.582 296.315 C 236.378 296.111,235.981 297.094,235.700 298.500 M233.300 309.700 C 232.633 313.035,233.279 313.681,234.000 310.400 C 234.304 309.017,234.385 307.719,234.182 307.515 C 233.978 307.311,233.581 308.294,233.300 309.700 M184.500 316.900 C 183.833 320.235,184.479 320.881,185.200 317.600 C 185.504 316.217,185.585 314.919,185.382 314.715 C 185.178 314.511,184.781 315.494,184.500 316.900 M230.900 320.900 C 230.233 324.235,230.879 324.881,231.600 321.600 C 231.904 320.217,231.985 318.919,231.782 318.715 C 231.578 318.511,231.181 319.494,230.900 320.900 M228.909 330.935 C 228.849 331.889,228.593 333.329,228.340 334.135 C 227.904 335.522,227.928 335.524,228.792 334.177 C 229.294 333.394,229.551 331.954,229.362 330.977 C 229.018 329.202,229.018 329.202,228.909 330.935 M180.499 335.631 C 180.224 336.346,180.031 337.531,180.069 338.265 C 180.107 338.999,180.455 338.538,180.842 337.240 C 181.596 334.715,181.330 333.466,180.499 335.631 M203.200 341.600 L 179.600 342.036 202.953 342.218 C 217.858 342.334,226.484 342.111,226.800 341.600 C 227.072 341.160,227.183 340.882,227.047 340.982 C 226.911 341.082,216.180 341.360,203.200 341.600 "/></svg>
