<svg version="1.1" xmlns="http://www.w3.org/2000/svg" xmlns:xlink="http://www.w3.org/1999/xlink" width="16" height="16" viewBox="0 0 512 512">
<path d="M212.8 18.7c-0.8-0.5-1.7-0.9-2.5-1.3-0.9 0.2-1.7 0.3-2.6 0.5l5.1 0.8z"></path>
<path d="M18.4 210.5c-0.2 0.9-0.3 1.8-0.4 2.6 0.5 0.8 0.8 1.6 1.3 2.4l-0.9-5z"></path>
<path d="M493.4 301.3c0.2-0.9 0.3-1.8 0.5-2.7-0.5-0.8-0.8-1.6-1.3-2.4l0.8 5.1z"></path>
<path d="M296 491.5c0.8 0.5 1.7 0.9 2.5 1.3 0.9-0.2 1.8-0.3 2.7-0.4l-5.2-0.9z"></path>
<path d="M493.9 298.6c-0.2 0.9-0.3 1.8-0.5 2.7l-0.9-5.2c0.5 0.9 0.9 1.7 1.4 2.5 2.6-14.4 4-29.1 4-43.8 0-32.6-6.4-64.3-19-94.1-12.2-28.8-29.6-54.7-51.8-76.9s-48.1-39.6-76.8-51.8c-29.8-12.6-61.5-19-94.1-19-15.4 0-30.8 1.4-45.8 4.3 0 0-0.1 0-0.1 0 0.8 0.4 1.7 0.8 2.5 1.3l-5.1-0.8c0.9-0.2 1.7-0.3 2.6-0.5-20.6-10.9-43.7-16.8-67.1-16.8-38.2 0-74.2 14.9-101.2 41.9s-41.9 63-41.9 101.2c0 24.3 6.3 48.3 18 69.4 0.2-0.9 0.3-1.8 0.4-2.6l0.9 5.1c-0.5-0.8-0.9-1.6-1.3-2.4-2.4 13.7-3.6 27.7-3.6 41.7 0 32.6 6.4 64.3 19 94.1 12.2 28.8 29.6 54.6 51.8 76.8s48.1 39.6 76.9 51.8c29.8 12.6 61.5 19 94.1 19 14.2 0 28.4-1.3 42.3-3.8-0.8-0.5-1.6-0.9-2.5-1.3l5.2 0.9c-0.9 0.2-1.8 0.3-2.7 0.4 21.4 12.1 45.7 18.6 70.4 18.6 38.2 0 74.2-14.9 101.2-41.9s41.9-63 41.9-101.2c-0.1-24.3-6.4-48.3-18.2-69.6zM257.1 402.9c-85.9 0-124.3-42.2-124.3-73.9 0-16.2 12-27.6 28.5-27.6 36.8 0 27.2 52.8 95.8 52.8 35.1 0 54.5-19.1 54.5-38.6 0-11.7-5.8-24.7-28.9-30.4l-76.4-19.1c-61.5-15.4-72.7-48.7-72.7-80 0-64.9 61.1-89.3 118.5-89.3 52.9 0 115.2 29.2 115.2 68.2 0 16.7-14.5 26.4-31 26.4-31.4 0-25.6-43.4-88.8-43.4-31.4 0-48.7 14.2-48.7 34.5s24.8 26.8 46.3 31.7l56.6 12.6c61.9 13.8 77.6 50 77.6 84 0 52.7-40.5 92.1-122.2 92.1z"></path>
</svg>
