<svg id="svg" xmlns="http://www.w3.org/2000/svg" xmlns:xlink="http://www.w3.org/1999/xlink" width="400" height="400" viewBox="0, 0, 400,400"><g id="svgg"><path id="path0" d="M108.219 16.741 C 104.904 17.777,100.778 18.904,99.051 19.245 C 94.779 20.088,94.427 21.085,92.606 37.534 C 92.074 42.343,90.487 52.728,90.254 52.925 C 88.787 54.164,77.498 61.370,77.023 61.370 C 76.167 61.370,66.870 58.763,55.404 55.308 C 44.455 52.009,45.433 51.991,42.611 55.549 C 41.326 57.169,38.321 60.634,35.934 63.248 L 31.595 68.002 33.390 71.946 C 34.377 74.115,36.525 78.973,38.163 82.740 C 39.801 86.507,41.994 91.381,43.036 93.571 C 45.378 98.491,45.386 98.203,42.787 103.691 C 41.607 106.181,40.224 109.243,39.714 110.495 C 38.799 112.737,38.720 112.787,34.250 113.879 C 31.756 114.488,24.674 116.607,18.512 118.587 L 7.310 122.186 5.786 132.357 C 4.948 137.950,4.351 142.593,4.460 142.674 C 6.875 144.470,13.686 149.041,13.947 149.041 C 14.193 149.041,29.807 159.402,31.597 160.754 C 31.647 160.791,32.205 164.218,32.838 168.368 L 33.989 175.914 30.341 180.423 C 28.334 182.903,25.541 186.164,24.133 187.671 C 22.725 189.178,20.901 191.333,20.079 192.459 C 19.257 193.586,17.235 195.965,15.586 197.746 C 12.149 201.458,12.084 200.405,16.300 209.315 C 17.797 212.479,19.447 216.240,19.967 217.671 L 20.913 220.274 37.530 220.274 L 54.148 220.274 57.663 224.247 C 59.596 226.432,61.885 229.168,62.749 230.327 L 64.321 232.436 62.874 243.478 C 61.027 257.566,60.193 264.767,60.391 264.928 C 63.105 267.123,76.764 275.616,77.581 275.616 C 78.212 275.616,81.666 273.686,85.255 271.326 C 88.844 268.966,93.014 266.329,94.521 265.467 C 96.027 264.605,99.069 262.692,101.279 261.217 C 105.819 258.186,104.824 258.193,114.282 261.129 C 121.024 263.222,121.220 263.408,123.812 270.137 C 124.451 271.795,127.106 277.527,129.713 282.877 L 134.454 292.603 144.929 292.603 L 155.405 292.603 157.132 288.904 C 158.083 286.870,159.718 283.233,160.766 280.822 C 161.815 278.411,164.229 273.374,166.131 269.629 L 169.589 262.819 176.427 260.725 C 180.187 259.573,183.494 258.630,183.776 258.630 C 184.319 258.630,190.199 262.294,202.894 270.542 C 212.408 276.724,211.377 276.731,220.903 270.414 C 225.219 267.553,228.926 265.148,229.141 265.071 C 229.357 264.994,228.550 258.027,227.349 249.589 C 224.706 231.032,224.437 233.108,230.399 226.076 L 235.319 220.274 251.769 220.271 L 268.219 220.268 271.622 213.011 C 276.559 202.485,276.936 201.275,275.749 199.787 C 274.586 198.330,262.929 184.694,258.481 179.588 L 255.258 175.889 256.405 168.355 C 257.213 163.048,257.807 160.660,258.414 160.274 C 258.888 159.973,263.137 157.198,267.857 154.108 C 283.926 143.589,285.206 142.753,285.372 142.671 C 285.527 142.595,282.671 122.638,282.460 122.324 C 282.320 122.114,256.592 114.166,253.545 113.391 L 250.926 112.725 247.908 106.376 C 243.792 97.717,243.713 99.117,248.947 87.940 C 251.486 82.518,254.477 75.811,255.594 73.036 L 257.625 67.989 250.939 60.296 C 247.262 56.065,244.010 52.603,243.712 52.603 C 243.414 52.603,236.970 54.440,229.393 56.686 C 211.843 61.888,213.063 61.636,210.881 60.511 C 205.735 57.859,199.540 53.150,199.237 51.662 C 198.953 50.259,197.507 41.251,195.257 26.849 C 194.225 20.251,194.027 19.876,191.315 19.415 C 190.215 19.228,185.963 18.085,181.867 16.876 L 174.419 14.678 171.664 17.613 C 170.149 19.227,167.632 22.094,166.070 23.983 C 164.509 25.872,162.442 28.214,161.478 29.188 C 160.514 30.162,158.151 32.870,156.227 35.205 L 152.729 39.452 144.936 39.452 L 137.142 39.452 127.886 29.008 C 115.231 14.728,115.289 14.790,114.736 14.826 C 114.467 14.844,111.534 15.706,108.219 16.741 M157.808 101.895 C 204.659 115.384,210.822 178.093,167.350 198.986 C 136.241 213.938,101.780 196.606,93.644 161.918 C 85.372 126.650,122.655 91.774,157.808 101.895 M300.313 201.233 C 300.048 201.911,298.328 205.614,296.491 209.462 C 294.654 213.311,293.151 216.665,293.151 216.916 C 293.151 217.167,291.821 220.191,290.197 223.635 L 287.243 229.897 280.590 232.541 L 273.937 235.184 267.791 232.438 C 264.410 230.927,261.027 229.512,260.274 229.292 C 259.521 229.072,255.629 227.446,251.627 225.679 C 244.535 222.547,242.740 221.990,242.740 222.919 C 242.740 223.169,240.545 225.625,237.863 228.377 C 235.180 231.130,232.067 234.503,230.944 235.873 L 228.902 238.365 231.520 243.429 C 232.960 246.214,236.294 252.776,238.930 258.010 L 243.722 267.527 242.143 272.198 C 240.719 276.412,240.177 278.516,240.045 280.351 C 240.020 280.694,238.829 281.522,237.397 282.190 C 235.966 282.859,231.342 285.315,227.123 287.648 C 222.904 289.982,217.511 292.850,215.138 294.022 C 212.765 295.194,210.732 296.402,210.620 296.706 C 210.380 297.356,213.493 317.238,213.898 317.643 C 214.049 317.794,221.155 319.394,229.689 321.199 L 245.205 324.481 247.225 326.761 C 248.336 328.015,250.266 330.740,251.514 332.817 L 253.783 336.593 252.381 344.324 C 247.924 368.905,247.816 370.411,250.509 370.411 C 250.749 370.411,254.415 372.523,258.656 375.103 C 262.897 377.684,266.604 379.717,266.894 379.620 C 267.389 379.455,271.593 375.944,283.339 365.887 C 286.069 363.549,289.137 361.000,290.156 360.222 L 292.010 358.808 299.108 359.365 L 306.207 359.922 308.363 362.290 C 309.549 363.592,312.321 366.753,314.522 369.315 C 327.662 384.603,327.283 384.213,328.749 383.942 C 330.602 383.599,344.469 378.503,346.683 377.352 L 348.434 376.441 348.183 366.714 C 348.045 361.364,347.827 353.969,347.699 350.281 L 347.465 343.575 352.500 338.437 L 357.534 333.300 373.699 332.621 C 392.296 331.840,390.434 332.252,391.186 328.746 C 391.511 327.233,392.764 322.960,393.970 319.251 C 395.177 315.542,396.153 312.158,396.139 311.733 C 396.115 310.982,389.989 305.899,385.502 302.907 C 384.284 302.095,380.945 299.544,378.082 297.237 C 375.219 294.931,372.191 292.687,371.352 292.252 C 370.513 291.816,369.950 291.262,370.100 291.019 C 370.250 290.776,369.932 287.583,369.393 283.923 L 368.413 277.269 372.289 271.852 C 374.420 268.872,377.376 264.740,378.856 262.669 C 380.336 260.598,382.864 257.151,384.472 255.007 C 386.081 252.864,387.397 250.938,387.397 250.728 C 387.397 249.715,375.709 232.877,375.006 232.877 C 374.562 232.877,368.039 234.499,360.510 236.481 C 343.013 241.088,343.616 241.079,336.643 236.820 L 331.094 233.431 329.624 227.811 C 327.947 221.400,322.635 201.972,322.516 201.812 C 322.415 201.677,303.317 200.000,301.877 200.000 C 301.263 200.000,300.587 200.533,300.313 201.233 M311.312 269.021 C 329.756 274.722,336.046 298.059,322.872 311.917 C 313.077 322.221,293.544 321.464,284.777 310.441 C 268.957 290.549,287.469 261.653,311.312 269.021 " stroke="none" fill="#000000" fill-rule="evenodd"></path></g></svg>